<svg width="14" height="14" viewBox="0 0 14 14" fill="none" xmlns="http://www.w3.org/2000/svg">
    <path
        d="M6.33203 4.99967H7.66537C7.84218 4.99967 8.01175 5.06991 8.13677 5.19494C8.2618 5.31996 8.33204 5.48953 8.33204 5.66634C8.33204 5.84315 8.40227 6.01272 8.5273 6.13775C8.65232 6.26277 8.82189 6.33301 8.9987 6.33301C9.17551 6.33301 9.34508 6.26277 9.47011 6.13775C9.59513 6.01272 9.66537 5.84315 9.66537 5.66634C9.66537 5.13591 9.45465 4.6272 9.07958 4.25213C8.70451 3.87705 8.1958 3.66634 7.66537 3.66634H6.33203C5.8016 3.66634 5.29289 3.87705 4.91782 4.25213C4.54275 4.6272 4.33203 5.13591 4.33203 5.66634V8.33301C4.33203 8.86344 4.54275 9.37215 4.91782 9.74722C5.29289 10.1223 5.8016 10.333 6.33203 10.333H7.66537C8.1958 10.333 8.70451 10.1223 9.07958 9.74722C9.45465 9.37215 9.66537 8.86344 9.66537 8.33301C9.66537 8.1562 9.59513 7.98663 9.47011 7.8616C9.34508 7.73658 9.17551 7.66634 8.9987 7.66634C8.82189 7.66634 8.65232 7.73658 8.5273 7.8616C8.40227 7.98663 8.33204 8.1562 8.33204 8.33301C8.33204 8.50982 8.2618 8.67939 8.13677 8.80441C8.01175 8.92944 7.84218 8.99967 7.66537 8.99967H6.33203C6.15522 8.99967 5.98565 8.92944 5.86063 8.80441C5.73561 8.67939 5.66537 8.50982 5.66537 8.33301V5.66634C5.66537 5.48953 5.73561 5.31996 5.86063 5.19494C5.98565 5.06991 6.15522 4.99967 6.33203 4.99967ZM6.9987 0.333008C5.68016 0.333008 4.39123 0.724001 3.2949 1.45654C2.19857 2.18909 1.34409 3.23028 0.839504 4.44845C0.33492 5.66663 0.202898 7.00707 0.460132 8.30028C0.717367 9.59348 1.35231 10.7814 2.28466 11.7137C3.21701 12.6461 4.40489 13.281 5.6981 13.5382C6.99131 13.7955 8.33175 13.6635 9.54992 13.1589C10.7681 12.6543 11.8093 11.7998 12.5418 10.7035C13.2744 9.60715 13.6654 8.31822 13.6654 6.99967C13.6654 6.1242 13.4929 5.25729 13.1579 4.44845C12.8229 3.63961 12.3318 2.90469 11.7127 2.28563C11.0937 1.66657 10.3588 1.17551 9.54992 0.840478C8.74109 0.505446 7.87418 0.333008 6.9987 0.333008ZM6.9987 12.333C5.94387 12.333 4.91272 12.0202 4.03566 11.4342C3.1586 10.8481 2.47501 10.0152 2.07134 9.04065C1.66768 8.06611 1.56206 6.99376 1.76785 5.95919C1.97363 4.92463 2.48158 3.97432 3.22746 3.22844C3.97334 2.48256 4.92365 1.97461 5.95822 1.76882C6.99278 1.56303 8.06514 1.66865 9.03968 2.07232C10.0142 2.47598 10.8472 3.15957 11.4332 4.03663C12.0192 4.91369 12.332 5.94484 12.332 6.99967C12.332 8.41416 11.7701 9.77072 10.7699 10.7709C9.76974 11.7711 8.41319 12.333 6.9987 12.333Z"
        fill="white" />
</svg>
    