<svg width="14" height="18" viewBox="0 0 14 18" fill="none" xmlns="http://www.w3.org/2000/svg">
    <path d="M1.16797 7.26904C1.16797 11.3122 4.70503 14.6558 6.27063 15.9377C6.49469 16.1211 6.60806 16.214 6.77522 16.261C6.90539 16.2977 7.09697 16.2977 7.22713 16.261C7.39461 16.2139 7.50719 16.122 7.7321 15.9378C9.29769 14.6559 12.8346 11.3126 12.8346 7.26941C12.8346 5.73932 12.22 4.27171 11.1261 3.18977C10.0321 2.10783 8.54847 1.5 7.00137 1.5C5.45427 1.5 3.97047 2.10792 2.87651 3.18986C1.78255 4.2718 1.16797 5.73895 1.16797 7.26904Z" stroke="#D5D5D5" stroke-width="2" stroke-linecap="round" stroke-linejoin="round"/>
    <path d="M5.33464 6.5C5.33464 7.42047 6.08083 8.16667 7.0013 8.16667C7.92178 8.16667 8.66797 7.42047 8.66797 6.5C8.66797 5.57953 7.92178 4.83333 7.0013 4.83333C6.08083 4.83333 5.33464 5.57953 5.33464 6.5Z" stroke="#D5D5D5" stroke-width="2" stroke-linecap="round" stroke-linejoin="round"/>
    </svg>
    